<svg width="36" height="36" viewBox="0 0 36 36" fill="none" xmlns="http://www.w3.org/2000/svg">
<rect x="0.0769043" y="0.461548" width="7" height="7" fill="#242424"/>
<rect x="7.0769" y="7.46155" width="7" height="7" fill="#242424"/>
<rect x="7.0769" y="14.4615" width="7" height="7" fill="#242424"/>
<rect x="7.0769" y="21.4615" width="7" height="7" fill="#242424"/>
<rect x="14.0769" y="7.46155" width="7" height="7" fill="#242424"/>
<rect x="14.0769" y="21.4615" width="7" height="7" fill="#242424"/>
<rect x="14.0769" y="28.4615" width="7" height="7" fill="#242424"/>
<rect x="0.0769043" y="28.4615" width="7" height="7" fill="#242424"/>
<rect x="0.0769043" y="14.4615" width="7" height="7" fill="#242424"/>
<rect x="28.0769" y="14.4615" width="7" height="7" fill="#242424"/>
<rect x="28.0769" y="28.4615" width="7" height="7" fill="#242424"/>
<rect x="14.0769" y="0.461548" width="7" height="7" fill="#242424"/>
<rect x="21.0769" y="7.46155" width="7" height="7" fill="#242424"/>
<rect x="21.0769" y="14.4615" width="7" height="7" fill="#242424"/>
<rect x="21.0769" y="21.4615" width="7" height="7" fill="#242424"/>
<rect x="28.0769" y="0.461548" width="7" height="7" fill="#242424"/>
</svg>
