<svg width="35" height="36" viewBox="0 0 35 36" fill="none" xmlns="http://www.w3.org/2000/svg">
<rect y="0.692322" width="7" height="7" fill="white"/>
<rect x="7" y="7.69232" width="7" height="7" fill="white"/>
<rect x="7" y="14.6923" width="7" height="7" fill="white"/>
<rect x="7" y="21.6923" width="7" height="7" fill="white"/>
<rect x="14" y="7.69232" width="7" height="7" fill="white"/>
<rect x="14" y="21.6923" width="7" height="7" fill="white"/>
<rect x="14" y="28.6923" width="7" height="7" fill="white"/>
<rect y="28.6923" width="7" height="7" fill="white"/>
<rect y="14.6923" width="7" height="7" fill="white"/>
<rect x="28" y="14.6923" width="7" height="7" fill="white"/>
<rect x="28" y="28.6923" width="7" height="7" fill="white"/>
<rect x="14" y="0.692322" width="7" height="7" fill="white"/>
<rect x="21" y="7.69232" width="7" height="7" fill="white"/>
<rect x="21" y="14.6923" width="7" height="7" fill="white"/>
<rect x="21" y="21.6923" width="7" height="7" fill="white"/>
<rect x="28" y="0.692322" width="7" height="7" fill="white"/>
</svg>
