<svg width="32" height="33" viewBox="0 0 32 33" fill="none" xmlns="http://www.w3.org/2000/svg">
<rect width="10.5661" height="10.5661" transform="matrix(-4.37114e-08 1 1 4.37114e-08 0 10.5659)" fill="#242424"/>
<rect width="10.5661" height="10.5661" transform="matrix(-4.37114e-08 1 1 4.37114e-08 5 5)" fill="#242424"/>
<rect width="10.5661" height="10.5661" transform="matrix(-4.37114e-08 1 1 4.37114e-08 16 5)" fill="#242424"/>
<rect width="10.5661" height="10.5661" transform="matrix(-4.37114e-08 1 1 4.37114e-08 10.5662 0)" fill="#242424"/>
<rect width="10.5661" height="21.1322" transform="matrix(-4.37114e-08 1 1 4.37114e-08 10.5662 10.5659)" fill="#242424"/>
<rect y="21.5661" width="10.5661" height="10.5661" transform="rotate(-90 0 21.5661)" fill="#242424"/>
<rect x="5" y="27.132" width="10.5661" height="10.5661" transform="rotate(-90 5 27.132)" fill="#242424"/>
<rect x="16" y="27.132" width="10.5661" height="10.5661" transform="rotate(-90 16 27.132)" fill="#242424"/>
<rect x="10.5662" y="32.132" width="10.5661" height="10.5661" transform="rotate(-90 10.5662 32.132)" fill="#242424"/>
<rect x="10.5662" y="21.5661" width="10.5661" height="21.1322" transform="rotate(-90 10.5662 21.5661)" fill="#242424"/>
</svg>
