<svg width="375" height="667" viewBox="0 0 375 667" fill="none" xmlns="http://www.w3.org/2000/svg">
<rect width="375" height="667" fill="#242424"/>
<rect width="11" height="11" transform="matrix(-1 0 0 1 192 165)" fill="white"/>
<rect width="11" height="11" transform="matrix(-1 0 0 1 109 112)" fill="white"/>
<rect width="11" height="11" transform="matrix(-1 0 0 1 120 101)" fill="white"/>
<rect width="11" height="11" transform="matrix(-1 0 0 1 181 176)" fill="white"/>
<rect width="11" height="11" transform="matrix(-1 0 0 1 98 123)" fill="white"/>
<rect width="11" height="11" transform="matrix(-1 0 0 1 170 187)" fill="white"/>
<rect width="11" height="11" transform="matrix(-1 0 0 1 87 134)" fill="white"/>
<rect width="11" height="11" transform="matrix(-1 0 0 1 76 145)" fill="white"/>
<rect width="11" height="11" transform="matrix(-1 0 0 1 170 165)" fill="#FDE033"/>
<rect width="11" height="11" transform="matrix(-1 0 0 1 87 112)" fill="#FDE033"/>
<rect width="11" height="11" transform="matrix(-1 0 0 1 76 101)" fill="#FDE033"/>
<rect width="11" height="11" transform="matrix(-1 0 0 1 192 187)" fill="#FDE033"/>
<rect width="11" height="11" transform="matrix(-1 0 0 1 109 134)" fill="white"/>
<rect width="11" height="11" transform="matrix(-1 0 0 1 120 145)" fill="white"/>
<rect x="109" y="260" width="11" height="11" fill="white"/>
<rect x="153" y="282" width="11" height="11" fill="white"/>
<rect x="131" y="304" width="11" height="11" fill="white"/>
<rect x="164" y="304" width="11" height="11" fill="white"/>
<rect x="186" y="304" width="11" height="11" fill="white"/>
<rect width="11" height="11" transform="matrix(-1 0 0 1 241 304)" fill="white"/>
<rect width="11" height="11" transform="matrix(-1 0 0 1 263 304)" fill="white"/>
<rect width="11" height="11" transform="matrix(-1 0 0 1 263 375)" fill="white"/>
<rect width="11" height="11" transform="matrix(-1 0 0 1 208 375)" fill="white"/>
<rect width="11" height="11" transform="matrix(-1 0 0 1 263 260)" fill="white"/>
<rect width="11" height="11" transform="matrix(-1 0 0 1 263 331)" fill="white"/>
<rect width="11" height="11" transform="matrix(-1 0 0 1 208 331)" fill="white"/>
<rect width="11" height="11" transform="matrix(-1 0 0 1 274 304)" fill="white"/>
<rect width="11" height="11" transform="matrix(-1 0 0 1 219 375)" fill="white"/>
<rect width="11" height="11" transform="matrix(-1 0 0 1 274 260)" fill="white"/>
<rect width="11" height="11" transform="matrix(-1 0 0 1 274 331)" fill="white"/>
<rect width="11" height="11" transform="matrix(-1 0 0 1 219 331)" fill="white"/>
<rect width="11" height="11" transform="matrix(-1 0 0 1 274 282)" fill="white"/>
<rect width="11" height="11" transform="matrix(-1 0 0 1 274 353)" fill="white"/>
<rect width="11" height="11" transform="matrix(-1 0 0 1 219 353)" fill="white"/>
<rect width="11" height="11" transform="matrix(-1 0 0 1 285 304)" fill="white"/>
<rect width="11" height="11" transform="matrix(-1 0 0 1 285 364)" fill="white"/>
<rect width="11" height="11" transform="matrix(-1 0 0 1 230 375)" fill="white"/>
<rect width="11" height="11" transform="matrix(-1 0 0 1 285 260)" fill="white"/>
<rect width="11" height="11" transform="matrix(-1 0 0 1 285 331)" fill="white"/>
<rect width="11" height="11" transform="matrix(-1 0 0 1 230 331)" fill="white"/>
<rect width="11" height="11" transform="matrix(-1 0 0 1 285 282)" fill="white"/>
<rect width="11" height="11" transform="matrix(-1 0 0 1 285 353)" fill="white"/>
<rect width="11" height="11" transform="matrix(-1 0 0 1 230 353)" fill="white"/>
<rect width="11" height="11" transform="matrix(-1 0 0 1 296 304)" fill="white"/>
<rect width="11" height="11" transform="matrix(-1 0 0 1 296 375)" fill="white"/>
<rect width="11" height="11" transform="matrix(-1 0 0 1 241 375)" fill="white"/>
<rect width="11" height="11" transform="matrix(-1 0 0 1 296 260)" fill="white"/>
<rect width="11" height="11" transform="matrix(-1 0 0 1 296 342)" fill="white"/>
<rect width="11" height="11" transform="matrix(-1 0 0 1 296 353)" fill="white"/>
<rect width="11" height="11" transform="matrix(-1 0 0 1 241 331)" fill="white"/>
<rect x="131" y="293" width="11" height="11" fill="white"/>
<rect x="164" y="293" width="11" height="11" fill="white"/>
<rect x="186" y="293" width="11" height="11" fill="white"/>
<rect width="11" height="11" transform="matrix(-1 0 0 1 241 293)" fill="white"/>
<rect width="11" height="11" transform="matrix(-1 0 0 1 263 293)" fill="white"/>
<rect width="11" height="11" transform="matrix(-1 0 0 1 263 364)" fill="white"/>
<rect width="11" height="11" transform="matrix(-1 0 0 1 208 364)" fill="white"/>
<rect x="131" y="282" width="11" height="11" fill="white"/>
<rect x="164" y="282" width="11" height="11" fill="white"/>
<rect x="186" y="282" width="11" height="11" fill="white"/>
<rect width="11" height="11" transform="matrix(-1 0 0 1 241 282)" fill="white"/>
<rect width="11" height="11" transform="matrix(-1 0 0 1 263 282)" fill="white"/>
<rect width="11" height="11" transform="matrix(-1 0 0 1 263 353)" fill="white"/>
<rect width="11" height="11" transform="matrix(-1 0 0 1 208 353)" fill="white"/>
<rect x="131" y="271" width="11" height="11" fill="white"/>
<rect x="164" y="271" width="11" height="11" fill="white"/>
<rect x="186" y="271" width="11" height="11" fill="white"/>
<rect width="11" height="11" transform="matrix(-1 0 0 1 241 271)" fill="white"/>
<rect width="11" height="11" transform="matrix(-1 0 0 1 263 271)" fill="white"/>
<rect width="11" height="11" transform="matrix(-1 0 0 1 263 342)" fill="white"/>
<rect width="11" height="11" transform="matrix(-1 0 0 1 208 342)" fill="white"/>
<rect x="197" y="271" width="11" height="11" fill="white"/>
<rect width="11" height="11" transform="matrix(-1 0 0 1 230 271)" fill="white"/>
<rect x="208" y="282" width="11" height="11" fill="white"/>
<rect x="186" y="260" width="11" height="11" fill="white"/>
<rect width="11" height="11" transform="matrix(-1 0 0 1 241 260)" fill="white"/>
<rect x="142" y="260" width="11" height="11" fill="white"/>
<rect x="153" y="260" width="11" height="11" fill="white"/>
<rect x="98" y="260" width="11" height="11" fill="white"/>
<rect x="98" y="331" width="11" height="11" fill="white"/>
<rect x="142" y="282" width="11" height="11" fill="white"/>
<rect x="87" y="260" width="11" height="11" fill="white"/>
<rect x="87" y="331" width="11" height="11" fill="white"/>
<rect x="76" y="271" width="11" height="11" fill="white"/>
<rect x="76" y="342" width="11" height="11" fill="white"/>
<rect x="109" y="342" width="11" height="11" fill="white"/>
<rect x="131" y="331" width="11" height="11" fill="white"/>
<rect x="175" y="331" width="11" height="11" fill="white"/>
<rect x="76" y="282" width="11" height="11" fill="white"/>
<rect x="76" y="353" width="11" height="11" fill="white"/>
<rect x="109" y="353" width="11" height="11" fill="white"/>
<rect x="131" y="342" width="11" height="11" fill="white"/>
<rect x="175" y="342" width="11" height="11" fill="white"/>
<rect x="76" y="293" width="11" height="11" fill="white"/>
<rect x="76" y="364" width="11" height="11" fill="white"/>
<rect x="109" y="364" width="11" height="11" fill="white"/>
<rect x="131" y="353" width="11" height="11" fill="white"/>
<rect x="175" y="353" width="11" height="11" fill="white"/>
<rect x="142" y="364" width="11" height="11" fill="white"/>
<rect x="153" y="375" width="11" height="11" fill="white"/>
<rect x="164" y="364" width="11" height="11" fill="white"/>
<rect x="87" y="304" width="11" height="11" fill="white"/>
<rect x="87" y="375" width="11" height="11" fill="white"/>
<rect x="98" y="304" width="11" height="11" fill="white"/>
<rect x="98" y="375" width="11" height="11" fill="white"/>
<rect x="109" y="304" width="11" height="11" fill="white"/>
<rect x="109" y="293" width="11" height="11" fill="white"/>
<rect x="109" y="282" width="11" height="11" fill="white"/>
<rect x="98" y="282" width="11" height="11" fill="white"/>
</svg>
