<svg width="285" height="56" viewBox="0 0 285 56" fill="none" xmlns="http://www.w3.org/2000/svg">
<rect x="33" width="11" height="11" fill="#242424"/>
<rect x="142" y="23" width="11" height="11" fill="#242424"/>
<rect x="120" y="45" width="11" height="11" fill="#242424"/>
<rect x="153" y="45" width="11" height="11" fill="#242424"/>
<rect width="11" height="11" transform="matrix(-1 0 0 1 186 45)" fill="#242424"/>
<rect width="11" height="11" transform="matrix(-1 0 0 1 263 45)" fill="#242424"/>
<rect width="11" height="11" transform="matrix(-1 0 0 1 87 45)" fill="#242424"/>
<rect width="11" height="11" transform="matrix(-1 0 0 1 186 1)" fill="#242424"/>
<rect width="11" height="11" transform="matrix(-1 0 0 1 263 1)" fill="#242424"/>
<rect width="11" height="11" transform="matrix(-1 0 0 1 87 1)" fill="#242424"/>
<rect width="11" height="11" transform="matrix(-1 0 0 1 197 1)" fill="#242424"/>
<rect width="11" height="11" transform="matrix(-1 0 0 1 274 1)" fill="#242424"/>
<rect width="11" height="11" transform="matrix(-1 0 0 1 98 1)" fill="#242424"/>
<rect width="11" height="11" transform="matrix(-1 0 0 1 241 1)" fill="#242424"/>
<rect width="11" height="11" transform="matrix(-1 0 0 1 65 1)" fill="#242424"/>
<rect width="11" height="11" transform="matrix(-1 0 0 1 197 23)" fill="#242424"/>
<rect width="11" height="11" transform="matrix(-1 0 0 1 208 34)" fill="#242424"/>
<rect width="11" height="11" transform="matrix(-1 0 0 1 208 1)" fill="#242424"/>
<rect width="11" height="11" transform="matrix(-1 0 0 1 285 1)" fill="#242424"/>
<rect width="11" height="11" transform="matrix(-1 0 0 1 109 1)" fill="#242424"/>
<rect width="11" height="11" transform="matrix(-1 0 0 1 252 1)" fill="#242424"/>
<rect width="11" height="11" transform="matrix(-1 0 0 1 76 1)" fill="#242424"/>
<rect width="11" height="11" transform="matrix(-1 0 0 1 208 23)" fill="#242424"/>
<rect width="11" height="11" transform="matrix(-1 0 0 1 219 45)" fill="#242424"/>
<rect width="11" height="11" transform="matrix(-1 0 0 1 219 12)" fill="#242424"/>
<rect width="11" height="11" transform="matrix(-1 0 0 1 219 23)" fill="#242424"/>
<rect x="120" y="34" width="11" height="11" fill="#242424"/>
<rect x="153" y="34" width="11" height="11" fill="#242424"/>
<rect width="11" height="11" transform="matrix(-1 0 0 1 186 34)" fill="#242424"/>
<rect width="11" height="11" transform="matrix(-1 0 0 1 263 34)" fill="#242424"/>
<rect width="11" height="11" transform="matrix(-1 0 0 1 87 34)" fill="#242424"/>
<rect x="120" y="23" width="11" height="11" fill="#242424"/>
<rect x="153" y="23" width="11" height="11" fill="#242424"/>
<rect width="11" height="11" transform="matrix(-1 0 0 1 186 23)" fill="#242424"/>
<rect width="11" height="11" transform="matrix(-1 0 0 1 263 23)" fill="#242424"/>
<rect width="11" height="11" transform="matrix(-1 0 0 1 87 23)" fill="#242424"/>
<rect x="120" y="12" width="11" height="11" fill="#242424"/>
<rect x="153" y="12" width="11" height="11" fill="#242424"/>
<rect width="11" height="11" transform="matrix(-1 0 0 1 186 12)" fill="#242424"/>
<rect width="11" height="11" transform="matrix(-1 0 0 1 263 12)" fill="#242424"/>
<rect width="11" height="11" transform="matrix(-1 0 0 1 87 12)" fill="#242424"/>
<rect x="131" y="1" width="11" height="11" fill="#242424"/>
<rect x="142" y="1" width="11" height="11" fill="#242424"/>
<rect x="22" width="11" height="11" fill="#242424"/>
<rect x="131" y="23" width="11" height="11" fill="#242424"/>
<rect x="11" width="11" height="11" fill="#242424"/>
<rect y="11" width="11" height="11" fill="#242424"/>
<rect y="22" width="11" height="11" fill="#242424"/>
<rect x="11" y="44" width="11" height="11" fill="#242424"/>
<rect y="44" width="11" height="11" fill="#242424"/>
<rect x="22" y="44" width="11" height="11" fill="#242424"/>
<rect x="33" y="44" width="11" height="11" fill="#242424"/>
<rect x="33" y="33" width="11" height="11" fill="#242424"/>
<rect x="22" y="22" width="11" height="11" fill="#242424"/>
<rect x="11" y="22" width="11" height="11" fill="#242424"/>
</svg>
