<svg width="375" height="667" viewBox="0 0 375 667" fill="none" xmlns="http://www.w3.org/2000/svg">
<rect width="375" height="667" fill="#FDE033"/>
<rect x="55" y="441" width="11" height="11" fill="white"/>
<rect x="89" y="452" width="11" height="11" fill="white"/>
<rect x="33" y="463" width="11" height="11" fill="#242424"/>
<rect x="44" y="452" width="11" height="11" fill="#242424"/>
<rect x="78" y="463" width="11" height="11" fill="#242424"/>
<rect width="11" height="11" transform="matrix(-1 0 0 1 254 136)" fill="white"/>
<rect width="11" height="11" transform="matrix(-1 0 0 1 308 116)" fill="white"/>
<rect width="11" height="11" transform="matrix(-1 0 0 1 276 158)" fill="#242424"/>
<rect width="11" height="11" transform="matrix(-1 0 0 1 323 171)" fill="#242424"/>
<rect width="11" height="11" transform="matrix(-1 0 0 1 312 182)" fill="#242424"/>
<rect width="11" height="11" transform="matrix(-1 0 0 1 301 193)" fill="#242424"/>
<rect width="11" height="11" transform="matrix(-1 0 0 1 290 204)" fill="white"/>
<rect width="11" height="11" transform="matrix(-1 0 0 1 265 147)" fill="#242424"/>
<rect width="11" height="11" transform="matrix(-1 0 0 1 319 127)" fill="#242424"/>
<rect x="182" y="249" width="11" height="11" fill="#242424"/>
<rect x="248" y="249" width="11" height="11" fill="#242424"/>
<rect x="171" y="249" width="11" height="11" fill="#242424"/>
<rect x="171" y="329" width="11" height="11" fill="#242424"/>
<rect x="160" y="260" width="11" height="11" fill="#242424"/>
<rect x="171" y="340" width="11" height="11" fill="#242424"/>
<rect x="215" y="260" width="11" height="11" fill="#242424"/>
<rect x="215" y="249" width="11" height="11" fill="#242424"/>
<rect x="193" y="260" width="11" height="11" fill="#242424"/>
<rect x="248" y="260" width="11" height="11" fill="#242424"/>
<rect x="160" y="271" width="11" height="11" fill="#242424"/>
<rect x="171" y="351" width="11" height="11" fill="#242424"/>
<rect x="215" y="271" width="11" height="11" fill="#242424"/>
<rect x="193" y="271" width="11" height="11" fill="#242424"/>
<rect x="248" y="271" width="11" height="11" fill="#242424"/>
<rect x="160" y="282" width="11" height="11" fill="#242424"/>
<rect x="171" y="362" width="11" height="11" fill="#242424"/>
<rect x="215" y="282" width="11" height="11" fill="#242424"/>
<rect x="193" y="282" width="11" height="11" fill="#242424"/>
<rect x="248" y="282" width="11" height="11" fill="#242424"/>
<rect x="171" y="293" width="11" height="11" fill="#242424"/>
<rect x="171" y="373" width="11" height="11" fill="#242424"/>
<rect x="226" y="293" width="11" height="11" fill="#242424"/>
<rect x="182" y="293" width="11" height="11" fill="#242424"/>
<rect x="237" y="293" width="11" height="11" fill="#242424"/>
<rect x="160" y="340" width="11" height="11" transform="rotate(-180 160 340)" fill="#242424"/>
<rect x="149" y="271" width="11" height="11" transform="rotate(-180 149 271)" fill="#242424"/>
<rect width="11" height="11" transform="matrix(1 8.74228e-08 8.74228e-08 -1 105 340)" fill="#242424"/>
<rect width="11" height="11" transform="matrix(1 8.74228e-08 8.74228e-08 -1 94 271)" fill="#242424"/>
<rect x="149" y="260" width="11" height="11" transform="rotate(-180 149 260)" fill="#242424"/>
<rect width="11" height="11" transform="matrix(1 8.74228e-08 8.74228e-08 -1 94 260)" fill="#242424"/>
<rect x="160" y="351" width="11" height="11" transform="rotate(-180 160 351)" fill="#242424"/>
<rect width="11" height="11" transform="matrix(1 8.74228e-08 8.74228e-08 -1 105 351)" fill="#242424"/>
<rect x="160" y="362" width="11" height="11" transform="rotate(-180 160 362)" fill="#242424"/>
<rect width="11" height="11" transform="matrix(1 8.74228e-08 8.74228e-08 -1 105 362)" fill="#242424"/>
<rect x="160" y="373" width="11" height="11" transform="rotate(-180 160 373)" fill="#242424"/>
<rect width="11" height="11" transform="matrix(1 8.74228e-08 8.74228e-08 -1 105 373)" fill="#242424"/>
<rect width="11" height="11" transform="matrix(1 8.74228e-08 8.74228e-08 -1 105 384)" fill="#242424"/>
<rect x="149" y="373" width="11" height="11" transform="rotate(-180 149 373)" fill="#242424"/>
<rect x="138" y="282" width="11" height="11" transform="rotate(-180 138 282)" fill="#242424"/>
<rect width="11" height="11" transform="matrix(1 8.74228e-08 8.74228e-08 -1 116 373)" fill="#242424"/>
<rect width="11" height="11" transform="matrix(1 8.74228e-08 8.74228e-08 -1 105 282)" fill="#242424"/>
<rect x="138" y="362" width="11" height="11" transform="rotate(-180 138 362)" fill="#242424"/>
<rect x="127" y="293" width="11" height="11" transform="rotate(-180 127 293)" fill="#242424"/>
<rect x="127" y="304" width="11" height="11" transform="rotate(-180 127 304)" fill="#242424"/>
<rect x="160" y="384" width="11" height="11" transform="rotate(-180 160 384)" fill="#242424"/>
<rect x="248" y="340" width="11" height="11" transform="rotate(-180 248 340)" fill="#242424"/>
<rect width="11" height="11" transform="matrix(1 8.74228e-08 8.74228e-08 -1 193 340)" fill="#242424"/>
<rect x="248" y="351" width="11" height="11" transform="rotate(-180 248 351)" fill="#242424"/>
<rect width="11" height="11" transform="matrix(1 8.74228e-08 8.74228e-08 -1 193 351)" fill="#242424"/>
<rect x="248" y="362" width="11" height="11" transform="rotate(-180 248 362)" fill="#242424"/>
<rect width="11" height="11" transform="matrix(1 8.74228e-08 8.74228e-08 -1 193 362)" fill="#242424"/>
<rect x="248" y="373" width="11" height="11" transform="rotate(-180 248 373)" fill="#242424"/>
<rect width="11" height="11" transform="matrix(1 8.74228e-08 8.74228e-08 -1 193 373)" fill="#242424"/>
<rect x="237" y="373" width="11" height="11" transform="rotate(-180 237 373)" fill="#242424"/>
<rect width="11" height="11" transform="matrix(1 8.74228e-08 8.74228e-08 -1 204 351)" fill="#242424"/>
<rect x="226" y="362" width="11" height="11" transform="rotate(-180 226 362)" fill="#242424"/>
<rect x="248" y="384" width="11" height="11" transform="rotate(-180 248 384)" fill="#242424"/>
<rect width="11" height="11" transform="matrix(1 8.74228e-08 8.74228e-08 -1 193 384)" fill="#242424"/>
</svg>
